<?xml version="1.0" encoding="UTF-8"?>
<svg version="1.1" xmlns="http://www.w3.org/2000/svg" width="128" height="128">
<path d="M0 0 C14.66593153 10.19568513 25.60840641 23.74932626 29.74780273 41.46484375 C31.86603529 54.29763126 31.44584138 68.79991362 26.125 80.75 C25.76277344 81.62269531 25.40054688 82.49539062 25.02734375 83.39453125 C17.33536706 100.36902897 3.07751411 111.05081733 -13.734375 117.91796875 C-30.02500275 122.93228047 -49.3872321 120.84818754 -64.375 113.25 C-80.79373216 104.34772371 -91.48385123 89.95575147 -96.98828125 72.1484375 C-100.09059644 59.05712927 -99.35177869 43.05030624 -93.875 30.75 C-93.51277344 29.87730469 -93.15054688 29.00460938 -92.77734375 28.10546875 C-85.8549626 12.82929883 -73.23462165 1.78063924 -57.87109375 -4.47265625 C-38.93392049 -11.50790437 -17.48941603 -10.43527048 0 0 Z " fill="#3B2F75" transform="translate(97.875,8.25)"/>
<path d="M0 0 C16.83 0 33.66 0 51 0 C50.67 1.65 50.34 3.3 50 5 C35.15 5 20.3 5 5 5 C5 17.54 5 30.08 5 43 C24.47 43 43.94 43 64 43 C64 36.07 64 29.14 64 22 C65.32 22 66.64 22 68 22 C68 30.91 68 39.82 68 49 C45.56 49 23.12 49 0 49 C0 32.83 0 16.66 0 0 Z " fill="#E8E6EF" transform="translate(22,37)"/>
<path d="M0 0 C1.65 0 3.3 0 5 0 C5.33 0.99 5.66 1.98 6 3 C7.093125 2.773125 8.18625 2.54625 9.3125 2.3125 C13 2 13 2 15 3.0625 C16.47177143 5.91405714 15.74138999 7.96704093 15 11 C16.32 11.33 17.64 11.66 19 12 C19 13.65 19 15.3 19 17 C17.68 17.33 16.36 17.66 15 18 C15.20625 19.11375 15.4125 20.2275 15.625 21.375 C15.74875 22.57125 15.8725 23.7675 16 25 C14 27 14 27 10.375 27.125 C9.26125 27.08375 8.1475 27.0425 7 27 C6.67 28.32 6.34 29.64 6 31 C4.02 31 2.04 31 0 31 C0 29.68 0 28.36 0 27 C-1.093125 27.226875 -2.18625 27.45375 -3.3125 27.6875 C-7 28 -7 28 -8.9375 26.9375 C-10.41793945 24.23787512 -10.20161999 22.02429981 -10 19 C-10.99 18.67 -11.98 18.34 -13 18 C-13 16.35 -13 14.7 -13 13 C-11.68 13 -10.36 13 -9 13 C-9.20625 11.72125 -9.4125 10.4425 -9.625 9.125 C-9.9765625 6.9453125 -9.9765625 6.9453125 -10 5 C-8 3 -8 3 -4.375 2.875 C-2.704375 2.936875 -2.704375 2.936875 -1 3 C-0.67 2.01 -0.34 1.02 0 0 Z " fill="#F7F6F9" transform="translate(87,26)"/>
<path d="M0 0 C0.94673584 0.00410889 1.89347168 0.00821777 2.86889648 0.01245117 C3.89563477 0.01438477 4.92237305 0.01631836 5.98022461 0.01831055 C7.05594727 0.03055664 8.13166992 0.04280273 9.23999023 0.05541992 C10.31958008 0.05606445 11.39916992 0.05670898 12.51147461 0.05737305 C20.53734426 0.10277394 20.53734426 0.10277394 21.67749023 1.24291992 C21.67749023 2.89291992 21.67749023 4.54291992 21.67749023 6.24291992 C13.42749023 6.24291992 5.17749023 6.24291992 -3.32250977 6.24291992 C-3.65250977 4.92291992 -3.98250977 3.60291992 -4.32250977 2.24291992 C-2.32250977 0.24291992 -2.32250977 0.24291992 0 0 Z " fill="#FBFBFC" transform="translate(48.322509765625,95.757080078125)"/>
<path d="M0 0 C8.91 0 17.82 0 27 0 C27 1.32 27 2.64 27 4 C18.09 4 9.18 4 0 4 C0 2.68 0 1.36 0 0 Z " fill="#ECEBF2" transform="translate(46,71)"/>
<path d="M0 0 C8.58 0 17.16 0 26 0 C26 1.32 26 2.64 26 4 C17.09 4 8.18 4 -1 4 C-0.67 2.68 -0.34 1.36 0 0 Z " fill="#E7E6EE" transform="translate(47,60)"/>
<path d="M0 0 C9.24 0 18.48 0 28 0 C28 0.99 28 1.98 28 3 C18.76 3 9.52 3 0 3 C0 2.01 0 1.02 0 0 Z " fill="#FCFCFD" transform="translate(46,50)"/>
<path d="M0 0 C3.63 0 7.26 0 11 0 C11.33 1.98 11.66 3.96 12 6 C7.71 6 3.42 6 -1 6 C-0.67 4.02 -0.34 2.04 0 0 Z " fill="#F3F2F6" transform="translate(52,88)"/>
<path d="M0 0 C3 0.125 3 0.125 4 1.125 C4.1875 4.0625 4.1875 4.0625 4 7.125 C2 9.125 2 9.125 -0.5 9.4375 C-1.7375 9.2828125 -1.7375 9.2828125 -3 9.125 C-5 6.125 -5 6.125 -4.6875 3.5 C-3.68897505 0.05055016 -3.71397355 0.1547489 0 0 Z " fill="#42377B" transform="translate(90,36.875)"/>
<path d="M0 0 C0.99 0 1.98 0 3 0 C3 0.66 3 1.32 3 2 C3.8971875 1.505 3.8971875 1.505 4.8125 1 C7 0 7 0 10 0 C9.75 1.875 9.75 1.875 9 4 C6.06004981 6.02755186 4.72295997 6 1 6 C0.67 4.02 0.34 2.04 0 0 Z " fill="#EFEEF4" transform="translate(32,47)"/>
<path d="M0 0 C3.3 0 6.6 0 10 0 C10 0.99 10 1.98 10 3 C4.375 6 4.375 6 1 6 C0.67 4.02 0.34 2.04 0 0 Z " fill="#F0EFF4" transform="translate(32,69)"/>
<path d="M0 0 C0.66 0 1.32 0 2 0 C2 0.66 2 1.32 2 2 C2.8971875 1.505 2.8971875 1.505 3.8125 1 C6 0 6 0 9 0 C9 1.32 9 2.64 9 4 C5.62902617 5.49821059 3.79557881 6 0 6 C-0.38218767 4.34385343 -0.71395102 2.67542976 -1 1 C-0.67 0.67 -0.34 0.34 0 0 Z " fill="#EEEDF3" transform="translate(33,58)"/>
</svg>
